<svg id="e9hmej3hw63s1" xmlns="http://www.w3.org/2000/svg" xmlns:xlink="http://www.w3.org/1999/xlink" viewBox="0 0 231 209" shape-rendering="geometricPrecision" text-rendering="geometricPrecision"><style><![CDATA[#e9hmej3hw63s2_to {animation: e9hmej3hw63s2_to__to 3000ms linear infinite normal forwards}@keyframes e9hmej3hw63s2_to__to { 0% {offset-distance: 0%} 16.666667% {offset-distance: 16.666667%} 33.333333% {offset-distance: 33.333333%} 50% {offset-distance: 50%} 66.666667% {offset-distance: 66.666667%} 83.333333% {offset-distance: 83.333333%} 100% {offset-distance: 100%} }]]></style><g id="e9hmej3hw63s2_to" style="offset-path:path('M90.286674,73.668082C70.056776,85.534861,62.157683,107.201906,61.629345,112.975547C61.235601,117.771718,60.012058,147.755670,94.755608,151.462743C126.654735,152.584210,142.387962,138.509966,147.524410,136.368248C160.517895,128.937700,173.911749,105.987518,172.525482,92.552599C172.313639,90.675663,171.778857,65.466396,139.218074,60.009769C114.718274,59.150536,106.924267,62.976924,90.096280,73.668082');offset-rotate:0deg"><circle id="e9hmej3hw63s2" r="7.500000" transform="rotate(8.952131) scale(1,1) translate(0.971246,-1.334459)" fill="rgb(17,15,24)" stroke="none" stroke-width="1"/></g><path id="e9hmej3hw63s3" d="M198.054000,61.168100C206.682000,77.819400,205.270000,97.721800,195.932000,116.471000C186.595000,135.220000,169.345000,152.780000,146.382000,164.678000C123.419000,176.577000,99.125900,180.543000,78.423800,177.359000C57.721300,174.175000,40.647300,163.851000,32.019400,147.200000C23.391400,130.549000,24.803400,110.646000,34.141000,91.896800C43.478500,73.147700,60.728100,55.588500,83.691300,43.690000C106.654000,31.791500,130.947000,27.825100,151.650000,31.009000C172.352000,34.193000,189.426000,44.516800,198.054000,61.168100Z" fill="none" stroke="rgb(17,15,24)" stroke-width="1"/><path id="e9hmej3hw63s4" d="M169.045000,79.067400C174.350000,89.306900,173.410000,101.605000,167.515000,113.244000C161.621000,124.883000,150.787000,135.823000,136.397000,143.280000C122.007000,150.736000,106.821000,153.278000,93.913500,151.381000C81.005100,149.485000,70.416000,143.161000,65.110300,132.922000C59.804600,122.682000,60.744900,110.384000,66.639700,98.745000C72.534000,87.106400,83.367700,76.165900,97.758000,68.709400C112.148000,61.253000,127.334000,58.711500,140.242000,60.607700C153.150000,62.504100,163.739000,68.827800,169.045000,79.067400Z" fill="none" stroke="rgb(17,15,24)" stroke-width="1"/></svg>