<svg id="ebf36mzsb1b1" xmlns="http://www.w3.org/2000/svg" xmlns:xlink="http://www.w3.org/1999/xlink" viewBox="0 0 455 354" shape-rendering="geometricPrecision" text-rendering="geometricPrecision"><style><![CDATA[#ebf36mzsb1b4_to {animation: ebf36mzsb1b4_to__to 3000ms linear infinite normal forwards}@keyframes ebf36mzsb1b4_to__to { 0% {offset-distance: 0%} 16.666667% {offset-distance: 16.666667%} 33.333333% {offset-distance: 33.333333%} 50% {offset-distance: 50%} 66.666667% {offset-distance: 66.666667%} 83.333333% {offset-distance: 83.333333%} 100% {offset-distance: 100%} }#ebf36mzsb1b5_to {animation: ebf36mzsb1b5_to__to 3000ms linear infinite normal forwards}@keyframes ebf36mzsb1b5_to__to { 0% {offset-distance: 0%} 16.666667% {offset-distance: 16.666667%} 33.333333% {offset-distance: 33.333333%} 50% {offset-distance: 50%} 66.666667% {offset-distance: 66.666667%} 83.333333% {offset-distance: 83.333333%} 100% {offset-distance: 100%} }]]></style><path id="ebf36mzsb1b2" d="M394.578000,183.926000C394.578000,277.261000,318.692000,352.926000,225.078000,352.926000C131.465000,352.926000,55.578400,277.261000,55.578400,183.926000C55.578400,90.591300,131.465000,14.926100,225.078000,14.926100C318.692000,14.926100,394.578000,90.591300,394.578000,183.926000Z" fill="none" stroke="rgb(17,15,24)" stroke-width="1"/><path id="ebf36mzsb1b3" d="M429.370000,35.852300C430.930000,38.136500,431.178000,41.330100,430.077000,45.422500C428.978000,49.510300,426.551000,54.414000,422.888000,60.025100C415.565000,71.243200,403.367000,85.185900,387.231000,100.925000C354.965000,132.396000,307.023000,170.979000,251.053000,209.209000C195.083000,247.438000,141.704000,278.061000,100.651000,296.669000C80.121300,305.974000,62.696600,312.265000,49.583100,315.006000C43.024000,316.377000,37.573700,316.853000,33.365900,316.391000C29.153500,315.927000,26.268900,314.535000,24.708700,312.250000C23.148500,309.966000,22.900300,306.772000,24.001200,302.680000C25.100900,298.592000,27.527100,293.689000,31.190000,288.078000C38.513400,276.859000,50.711300,262.917000,66.847400,247.178000C99.113600,215.707000,147.056000,177.123000,203.025000,138.894000C258.995000,100.665000,312.375000,70.041800,353.427000,51.433800C373.957000,42.128200,391.382000,35.837600,404.495000,33.096700C411.054000,31.725700,416.505000,31.249400,420.712000,31.712100C424.925000,32.175200,427.810000,33.568100,429.370000,35.852300Z" fill="none" stroke="rgb(17,15,24)" stroke-width="1"/><g id="ebf36mzsb1b4_to" style="offset-path:path('M73.259967,109.926100C42.510939,162.500480,57.931046,237.346473,79.143932,270.291444C97.181061,307.819212,154.554166,351.477939,225.078201,352.926000C278.252528,349.945277,326.514822,338.290496,377.922020,261.563095C392.825895,220.311922,409.163573,158.542069,372.550729,100.424351C346.722310,50.221025,294.128414,17.693139,220.811745,14.926100C177.565965,12.730750,101.146893,47.253209,72.399552,109.926100');offset-rotate:0deg"><ellipse id="ebf36mzsb1b4" rx="31" ry="30.500000" transform="translate(0,-0)" fill="rgb(17,15,24)" stroke="none" stroke-width="1"/></g><g id="ebf36mzsb1b5_to" style="offset-path:path('M409.478358,74.239305C413.984993,82.229104,329.200730,153.211481,308.737580,167.926052C320.909499,162.759613,203.003942,239.422189,171.127299,260.891684C128.180691,284.170427,12.940892,343.637489,23.337960,300.556093C72.490398,225.527767,138.532784,188.975177,151.656367,177C161.727539,163.571772,316.744756,67.968364,316.744756,67.968364C401.360007,25.192289,465.724412,13.120243,410.149769,74.239305');offset-rotate:0deg"><circle id="ebf36mzsb1b5" r="16" transform="translate(-0.000003,-0.000002)" fill="rgb(17,15,24)" stroke="none" stroke-width="1"/></g></svg>